<svg width="362" height="193" viewBox="0 0 362 193" fill="none" xmlns="http://www.w3.org/2000/svg">
<g filter="url(#filter0_d_2058_33819)">
<rect x="16.1472" y="12.1104" width="329" height="160.463" rx="14.3459" fill="white"/>
<rect x="16.6518" y="12.615" width="327.991" height="159.454" rx="13.8413" stroke="#E9ECF2" stroke-width="1.0092"/>
<path d="M30.8815 36.2944V29.23H33.3187C33.6686 29.23 33.9865 29.3023 34.2724 29.447C34.5617 29.5883 34.7905 29.7952 34.9587 30.0677C35.1269 30.3401 35.211 30.6664 35.211 31.0466C35.211 31.2518 35.1757 31.4503 35.105 31.642C35.0378 31.8304 34.9436 31.9935 34.8225 32.1315C34.7047 32.266 34.5702 32.3569 34.4188 32.404C34.6307 32.4578 34.8107 32.5537 34.9587 32.6916C35.1067 32.8261 35.2261 32.9842 35.317 33.1659C35.4112 33.3476 35.4784 33.5376 35.5188 33.7361C35.5592 33.9346 35.5794 34.1263 35.5794 34.3114C35.5794 34.7016 35.4902 35.0464 35.3119 35.3458C35.137 35.6418 34.9015 35.8739 34.6055 36.0421C34.3094 36.2103 33.9831 36.2944 33.6266 36.2944H30.8815ZM31.7293 35.5476H33.5509C33.783 35.5476 33.9932 35.4888 34.1816 35.371C34.3734 35.2499 34.5264 35.0851 34.6408 34.8765C34.7552 34.6679 34.8124 34.4325 34.8124 34.1701C34.8124 33.9379 34.7552 33.7193 34.6408 33.5141C34.5264 33.3055 34.3734 33.1373 34.1816 33.0095C33.9932 32.8816 33.783 32.8177 33.5509 32.8177H31.7293V35.5476ZM31.7293 32.0861H33.238C33.5475 32.0861 33.8116 31.9952 34.0302 31.8136C34.2523 31.6286 34.3633 31.3712 34.3633 31.0415C34.3633 30.685 34.2523 30.4192 34.0302 30.2443C33.8116 30.066 33.5475 29.9768 33.238 29.9768H31.7293V32.0861ZM36.5879 31.2484H37.4356V36.2944H36.5879V31.2484ZM37.0218 30.4259C36.8872 30.4259 36.7746 30.3822 36.6837 30.2947C36.5929 30.2073 36.5475 30.0979 36.5475 29.9667C36.5475 29.8355 36.5929 29.7262 36.6837 29.6387C36.7746 29.5513 36.8856 29.5075 37.0168 29.5075C37.148 29.5075 37.259 29.5513 37.3498 29.6387C37.4406 29.7262 37.486 29.8355 37.486 29.9667C37.486 30.0979 37.4406 30.2073 37.3498 30.2947C37.2623 30.3822 37.153 30.4259 37.0218 30.4259ZM41.2615 32.0962H40.116L40.111 36.2944H39.2633L39.2683 32.0962H38.4004V31.2484H39.2683L39.2633 29.664H40.111L40.116 31.2484H41.2615V32.0962ZM45.5146 34.9623L46.2715 35.371C46.0428 35.6906 45.7518 35.9463 45.3986 36.138C45.0487 36.3298 44.6686 36.4256 44.2582 36.4256C43.794 36.4256 43.3701 36.3062 42.9866 36.0674C42.6065 35.8285 42.302 35.5089 42.0733 35.1086C41.8479 34.7049 41.7352 34.2592 41.7352 33.7714C41.7352 33.4014 41.8008 33.0566 41.932 32.737C42.0632 32.4141 42.2431 32.1315 42.4719 31.8893C42.704 31.6437 42.9731 31.4519 43.2793 31.314C43.5854 31.1761 43.9117 31.1071 44.2582 31.1071C44.6686 31.1071 45.0487 31.203 45.3986 31.3948C45.7518 31.5865 46.0428 31.8439 46.2715 32.1668L45.5146 32.5755C45.3532 32.377 45.1614 32.224 44.9394 32.1163C44.7174 32.0087 44.4903 31.9549 44.2582 31.9549C43.9453 31.9549 43.6611 32.039 43.4054 32.2072C43.1531 32.372 42.9529 32.5923 42.8049 32.8682C42.6569 33.144 42.5829 33.4451 42.5829 33.7714C42.5829 34.0977 42.6569 34.3988 42.8049 34.6747C42.9563 34.9471 43.1582 35.1658 43.4105 35.3306C43.6661 35.4955 43.9487 35.5779 44.2582 35.5779C44.5071 35.5779 44.7409 35.5207 44.9596 35.4063C45.1782 35.292 45.3633 35.1439 45.5146 34.9623ZM49.3141 36.4256C48.8498 36.4256 48.426 36.3062 48.0425 36.0674C47.6623 35.8285 47.3579 35.5089 47.1291 35.1086C46.9037 34.7049 46.791 34.2592 46.791 33.7714C46.791 33.4014 46.8566 33.0566 46.9878 32.737C47.119 32.4141 47.299 32.1315 47.5278 31.8893C47.7599 31.6437 48.029 31.4519 48.3351 31.314C48.6413 31.1761 48.9676 31.1071 49.3141 31.1071C49.7783 31.1071 50.2005 31.2266 50.5806 31.4654C50.9641 31.7042 51.2685 32.0255 51.4939 32.4292C51.7227 32.8329 51.8371 33.2803 51.8371 33.7714C51.8371 34.1381 51.7715 34.4812 51.6403 34.8008C51.5091 35.1204 51.3274 35.403 51.0953 35.6485C50.8665 35.8908 50.5991 36.0808 50.293 36.2187C49.9902 36.3567 49.6639 36.4256 49.3141 36.4256ZM49.3141 35.5779C49.6303 35.5779 49.9145 35.4955 50.1668 35.3306C50.4225 35.1624 50.6227 34.9421 50.7673 34.6696C50.9153 34.3938 50.9893 34.0944 50.9893 33.7714C50.9893 33.4418 50.9136 33.139 50.7623 32.8631C50.6142 32.5873 50.4141 32.367 50.1618 32.2021C49.9095 32.0373 49.6269 31.9549 49.3141 31.9549C48.9978 31.9549 48.7136 32.039 48.4613 32.2072C48.209 32.372 48.0088 32.5923 47.8608 32.8682C47.7128 33.144 47.6388 33.4451 47.6388 33.7714C47.6388 34.1078 47.7145 34.414 47.8658 34.6898C48.0172 34.9623 48.2207 35.1793 48.4764 35.3407C48.7321 35.4988 49.0113 35.5779 49.3141 35.5779ZM52.603 31.2484H53.4508V36.2944H52.603V31.2484ZM53.037 30.4259C52.9024 30.4259 52.7897 30.3822 52.6989 30.2947C52.6081 30.2073 52.5627 30.0979 52.5627 29.9667C52.5627 29.8355 52.6081 29.7262 52.6989 29.6387C52.7897 29.5513 52.9007 29.5075 53.0319 29.5075C53.1631 29.5075 53.2741 29.5513 53.365 29.6387C53.4558 29.7262 53.5012 29.8355 53.5012 29.9667C53.5012 30.0979 53.4558 30.2073 53.365 30.2947C53.2775 30.3822 53.1682 30.4259 53.037 30.4259ZM59.0939 33.1558V36.2944H58.2462V33.3425C58.2462 33.0869 58.184 32.8547 58.0595 32.6462C57.935 32.4376 57.7685 32.2728 57.5599 32.1517C57.3514 32.0272 57.1193 31.965 56.8636 31.965C56.6113 31.965 56.3792 32.0272 56.1672 32.1517C55.9587 32.2728 55.7922 32.4376 55.6677 32.6462C55.5432 32.8547 55.481 33.0869 55.481 33.3425V36.2944H54.6333V31.2484H55.481V31.8792C55.6593 31.6437 55.8847 31.457 56.1572 31.3191C56.4296 31.1778 56.7257 31.1071 57.0453 31.1071C57.422 31.1071 57.7651 31.1996 58.0746 31.3847C58.3875 31.5663 58.6347 31.8119 58.8164 32.1214C59.0014 32.4309 59.0939 32.7757 59.0939 33.1558ZM63.9707 36.8596C63.6275 36.5333 63.35 36.17 63.1381 35.7696C62.9261 35.3693 62.7714 34.9404 62.6738 34.4829C62.5763 34.022 62.5275 33.5427 62.5275 33.0448C62.5275 32.7824 62.5477 32.5032 62.5881 32.2072C62.6284 31.9078 62.689 31.6101 62.7697 31.314C62.8505 31.0146 62.948 30.7304 63.0624 30.4612C63.1801 30.1921 63.3147 29.9516 63.4661 29.7397C63.6174 29.5244 63.7856 29.3545 63.9707 29.23H64.8184C64.6536 29.378 64.5005 29.5597 64.3592 29.775C64.2179 29.9869 64.0884 30.2241 63.9707 30.4865C63.8529 30.7455 63.7503 31.0197 63.6629 31.309C63.5754 31.5983 63.5064 31.8909 63.456 32.187C63.4089 32.4796 63.382 32.7656 63.3752 33.0448C63.3853 33.573 63.4526 34.0708 63.5771 34.5384C63.7049 35.006 63.8748 35.4349 64.0867 35.8252C64.302 36.2154 64.5459 36.5602 64.8184 36.8596H63.9707ZM65.9277 36.2944V29.23H68.3649C68.7147 29.23 69.0326 29.3023 69.3186 29.447C69.6079 29.5883 69.8366 29.7952 70.0048 30.0677C70.173 30.3401 70.2571 30.6664 70.2571 31.0466C70.2571 31.2518 70.2218 31.4503 70.1512 31.642C70.0839 31.8304 69.9897 31.9935 69.8686 32.1315C69.7508 32.266 69.6163 32.3569 69.4649 32.404C69.6768 32.4578 69.8568 32.5537 70.0048 32.6916C70.1528 32.8261 70.2723 32.9842 70.3631 33.1659C70.4573 33.3476 70.5246 33.5376 70.5649 33.7361C70.6053 33.9346 70.6255 34.1263 70.6255 34.3114C70.6255 34.7016 70.5363 35.0464 70.3581 35.3458C70.1831 35.6418 69.9476 35.8739 69.6516 36.0421C69.3556 36.2103 69.0293 36.2944 68.6727 36.2944H65.9277ZM66.7754 35.5476H68.597C68.8291 35.5476 69.0394 35.4888 69.2277 35.371C69.4195 35.2499 69.5726 35.0851 69.6869 34.8765C69.8013 34.6679 69.8585 34.4325 69.8585 34.1701C69.8585 33.9379 69.8013 33.7193 69.6869 33.5141C69.5726 33.3055 69.4195 33.1373 69.2277 33.0095C69.0394 32.8816 68.8291 32.8177 68.597 32.8177H66.7754V35.5476ZM66.7754 32.0861H68.2841C68.5936 32.0861 68.8577 31.9952 69.0764 31.8136C69.2984 31.6286 69.4094 31.3712 69.4094 31.0415C69.4094 30.685 69.2984 30.4192 69.0764 30.2443C68.8577 30.066 68.5936 29.9768 68.2841 29.9768H66.7754V32.0861ZM76.5736 29.23V30.0777H74.2222V36.2944H73.3745V30.0777H71.0281V29.23H76.5736ZM80.4524 36.4256C79.9748 36.4256 79.5257 36.3314 79.1052 36.1431C78.6847 35.9513 78.3146 35.6889 77.995 35.3559C77.6788 35.0195 77.4299 34.6292 77.2482 34.1852C77.0699 33.7412 76.9808 33.2668 76.9808 32.7622C76.9808 32.2576 77.0699 31.7833 77.2482 31.3392C77.4299 30.8952 77.6788 30.5067 77.995 30.1736C78.3146 29.8372 78.6847 29.5748 79.1052 29.3864C79.5257 29.1947 79.9748 29.0988 80.4524 29.0988C81.0243 29.0988 81.5508 29.2317 82.0318 29.4975C82.5129 29.7632 82.9115 30.1164 83.2277 30.5571L82.4759 30.9608C82.2404 30.6513 81.9427 30.4057 81.5827 30.2241C81.2262 30.0391 80.8494 29.9466 80.4524 29.9466C80.0858 29.9466 79.7426 30.0206 79.4231 30.1686C79.1068 30.3166 78.8293 30.5201 78.5905 30.7791C78.3516 31.0382 78.1649 31.3376 78.0304 31.6773C77.8958 32.0171 77.8285 32.3787 77.8285 32.7622C77.8285 33.1491 77.8958 33.5124 78.0304 33.8522C78.1683 34.1919 78.3567 34.4913 78.5955 34.7504C78.8377 35.0094 79.1169 35.2129 79.4331 35.3609C79.7527 35.5056 80.0925 35.5779 80.4524 35.5779C80.8628 35.5779 81.243 35.4854 81.5928 35.3004C81.9461 35.112 82.2404 34.8664 82.4759 34.5637L83.2277 34.9724C82.9115 35.4131 82.5129 35.7663 82.0318 36.032C81.5508 36.2944 81.0243 36.4256 80.4524 36.4256ZM84.2368 36.8596C84.5093 36.5602 84.7515 36.2154 84.9634 35.8252C85.1753 35.4349 85.3452 35.006 85.4731 34.5384C85.6009 34.0708 85.6699 33.573 85.6799 33.0448C85.6732 32.7656 85.6446 32.4796 85.5942 32.187C85.5471 31.8909 85.4798 31.5983 85.3923 31.309C85.3049 31.0197 85.2023 30.7455 85.0845 30.4865C84.9668 30.2241 84.8373 29.9869 84.696 29.775C84.5547 29.5597 84.4016 29.378 84.2368 29.23H85.0845C85.2695 29.3545 85.4361 29.5244 85.5841 29.7397C85.7355 29.9516 85.87 30.1921 85.9878 30.4612C86.1055 30.7304 86.2047 31.0146 86.2855 31.314C86.3662 31.6101 86.4268 31.9078 86.4671 32.2072C86.5075 32.5032 86.5277 32.7824 86.5277 33.0448C86.5277 33.5427 86.4789 34.022 86.3813 34.4829C86.2838 34.9404 86.129 35.3693 85.9171 35.7696C85.7052 36.17 85.4276 36.5333 85.0845 36.8596H84.2368Z" fill="#242428"/>
<rect x="307.807" y="22.2024" width="1.0092" height="20.184" fill="#D9D9D9"/>
<path fill-rule="evenodd" clip-rule="evenodd" d="M327.418 30.4303C327.304 30.3316 327.15 30.2762 326.989 30.2762C326.828 30.2762 326.674 30.3316 326.56 30.4303L323.13 33.408C323.072 33.4566 323.026 33.5146 322.994 33.5789C322.962 33.6431 322.945 33.7121 322.945 33.782C322.944 33.8519 322.959 33.9212 322.99 33.9859C323.02 34.0506 323.065 34.1094 323.122 34.1588C323.179 34.2082 323.247 34.2473 323.321 34.2738C323.396 34.3003 323.476 34.3136 323.556 34.313C323.637 34.3124 323.716 34.2978 323.79 34.2703C323.864 34.2427 323.931 34.2026 323.987 34.1523L326.989 31.5467L329.991 34.1523C330.105 34.2482 330.258 34.3012 330.417 34.3C330.576 34.2988 330.728 34.2435 330.841 34.1459C330.953 34.0483 331.017 33.9163 331.018 33.7783C331.02 33.6402 330.958 33.5073 330.848 33.408L327.418 30.4303Z" fill="#014754"/>
<path fill-rule="evenodd" clip-rule="evenodd" d="M327.418 30.4303C327.304 30.3316 327.15 30.2762 326.989 30.2762C326.828 30.2762 326.674 30.3316 326.56 30.4303L323.13 33.408C323.072 33.4566 323.026 33.5146 322.994 33.5789C322.962 33.6431 322.945 33.7121 322.945 33.782C322.944 33.8519 322.959 33.9212 322.99 33.9859C323.02 34.0506 323.065 34.1094 323.122 34.1588C323.179 34.2082 323.247 34.2473 323.321 34.2738C323.396 34.3003 323.476 34.3136 323.556 34.313C323.637 34.3124 323.716 34.2978 323.79 34.2703C323.864 34.2427 323.931 34.2026 323.987 34.1523L326.989 31.5467L329.991 34.1523C330.105 34.2482 330.258 34.3012 330.417 34.3C330.576 34.2988 330.728 34.2435 330.841 34.1459C330.953 34.0483 331.017 33.9163 331.018 33.7783C331.02 33.6402 330.958 33.5073 330.848 33.408L327.418 30.4303Z" fill="#676768"/>
<rect x="33.8082" y="98.3972" width="41.0763" height="25.4319" rx="12.7159" fill="#F4F6FA"/>
<rect x="33.8082" y="98.3972" width="41.0763" height="25.4319" rx="12.7159" stroke="#E9ECF2" stroke-width="1.0092"/>
<g clip-path="url(#clip0_2058_33819)">
<path opacity="0.6" d="M43.8986 109.173L39.3589 111.145L43.8986 113.709L48.44 111.145L43.8986 109.173Z" fill="#242428"/>
<path opacity="0.45" d="M39.3589 111.143L43.8986 113.707V103.948L39.3589 111.143Z" fill="#242428"/>
<path opacity="0.8" d="M43.9003 103.948V113.707L48.44 111.143L43.9003 103.948Z" fill="#242428"/>
<path opacity="0.45" d="M39.3589 111.964L43.8986 118.076V114.527L39.3589 111.964Z" fill="#242428"/>
<path opacity="0.8" d="M43.8964 114.527V118.076L48.4395 111.964L43.8964 114.527Z" fill="#242428"/>
</g>
<path d="M50.9394 115.113V108.049H55.2739V108.896H51.7871V110.905H54.6432V111.752H51.7871V114.265H55.2739V115.113H50.9394ZM61.7233 108.049V108.896H59.3719V115.113H58.5242V108.896H56.1778V108.049H61.7233ZM67.081 108.049H67.9288V115.113H67.081V111.752H63.5841V115.113H62.7364V108.049H63.5841V110.905H67.081V108.049Z" fill="#676768"/>
<path d="M83.059 115.113V108.049H87.3935V108.896H83.9067V110.905H86.7628V111.752H83.9067V114.265H87.3935V115.113H83.059ZM91.1131 110.915H89.9676L89.9626 115.113H89.1149L89.1199 110.915H88.252V110.067H89.1199L89.1149 108.483H89.9626L89.9676 110.067H91.1131V110.915ZM96.4783 111.974V115.113H95.6306V112.161C95.6306 111.905 95.5684 111.673 95.4439 111.465C95.3194 111.256 95.1529 111.091 94.9443 110.97C94.7358 110.846 94.5037 110.784 94.248 110.784C93.9957 110.784 93.7636 110.846 93.5516 110.97C93.3431 111.091 93.1766 111.256 93.0521 111.465C92.9276 111.673 92.8654 111.905 92.8654 112.161V115.113H92.0177V107.544H92.8654V110.698C93.0437 110.462 93.2691 110.276 93.5416 110.138C93.814 109.996 94.1101 109.926 94.4296 109.926C94.8064 109.926 95.1495 110.018 95.459 110.203C95.7719 110.385 96.0191 110.63 96.2008 110.94C96.3858 111.249 96.4783 111.594 96.4783 111.974ZM99.6091 115.244C99.1449 115.244 98.721 115.125 98.3375 114.886C97.9574 114.647 97.653 114.328 97.4242 113.927C97.1988 113.524 97.0861 113.078 97.0861 112.59C97.0861 112.22 97.1517 111.875 97.2829 111.556C97.4141 111.233 97.5941 110.95 97.8229 110.708C98.055 110.462 98.3241 110.271 98.6302 110.133C98.9363 109.995 99.2627 109.926 99.6091 109.926C99.9893 109.926 100.337 110.003 100.654 110.158C100.973 110.309 101.246 110.521 101.471 110.794C101.7 111.066 101.87 111.382 101.981 111.742C102.095 112.102 102.137 112.487 102.107 112.898H97.9894C98.0297 113.184 98.1239 113.439 98.272 113.665C98.42 113.887 98.6084 114.063 98.8371 114.195C99.0692 114.326 99.3266 114.393 99.6091 114.397C99.9119 114.397 100.186 114.319 100.432 114.164C100.677 114.006 100.876 113.791 101.027 113.518L101.89 113.72C101.688 114.168 101.384 114.534 100.977 114.82C100.57 115.103 100.114 115.244 99.6091 115.244ZM97.9641 112.232H101.254C101.227 111.949 101.136 111.692 100.982 111.46C100.827 111.224 100.63 111.036 100.391 110.895C100.152 110.753 99.8917 110.683 99.6091 110.683C99.3266 110.683 99.0675 110.752 98.8321 110.89C98.5966 111.027 98.4015 111.214 98.2467 111.45C98.0953 111.682 98.0011 111.942 97.9641 112.232ZM102.957 115.113V110.067H103.805V110.698C103.983 110.462 104.209 110.276 104.481 110.138C104.754 109.996 105.05 109.926 105.369 109.926C105.564 109.926 105.753 109.951 105.934 110.001L105.591 110.849C105.453 110.805 105.319 110.784 105.188 110.784C104.935 110.784 104.703 110.846 104.491 110.97C104.283 111.091 104.116 111.256 103.992 111.465C103.867 111.673 103.805 111.905 103.805 112.161V115.113H102.957ZM108.519 115.244C108.054 115.244 107.63 115.125 107.247 114.886C106.867 114.647 106.562 114.328 106.334 113.927C106.108 113.524 105.996 113.078 105.996 112.59C105.996 112.22 106.061 111.875 106.192 111.556C106.323 111.233 106.503 110.95 106.732 110.708C106.964 110.462 107.233 110.271 107.54 110.133C107.846 109.995 108.172 109.926 108.519 109.926C108.899 109.926 109.247 110.003 109.563 110.158C109.883 110.309 110.155 110.521 110.38 110.794C110.609 111.066 110.779 111.382 110.89 111.742C111.005 112.102 111.047 112.487 111.016 112.898H106.899C106.939 113.184 107.033 113.439 107.181 113.665C107.329 113.887 107.518 114.063 107.746 114.195C107.979 114.326 108.236 114.393 108.519 114.397C108.821 114.397 109.095 114.319 109.341 114.164C109.587 114.006 109.785 113.791 109.936 113.518L110.799 113.72C110.597 114.168 110.293 114.534 109.886 114.82C109.479 115.103 109.023 115.244 108.519 115.244ZM106.874 112.232H110.164C110.137 111.949 110.046 111.692 109.891 111.46C109.736 111.224 109.539 111.036 109.301 110.895C109.062 110.753 108.801 110.683 108.519 110.683C108.236 110.683 107.977 110.752 107.741 110.89C107.506 111.027 107.311 111.214 107.156 111.45C107.005 111.682 106.911 111.942 106.874 112.232ZM111.596 113.196V110.067H112.444V113.009C112.444 113.265 112.506 113.497 112.63 113.705C112.755 113.914 112.921 114.08 113.13 114.205C113.342 114.326 113.574 114.386 113.826 114.386C114.082 114.386 114.312 114.326 114.517 114.205C114.726 114.08 114.893 113.914 115.017 113.705C115.141 113.497 115.204 113.265 115.204 113.009V110.067H116.051L116.056 115.113H115.209L115.204 114.472C115.025 114.708 114.8 114.896 114.528 115.037C114.255 115.175 113.961 115.244 113.644 115.244C113.268 115.244 112.923 115.153 112.61 114.972C112.301 114.787 112.053 114.539 111.868 114.23C111.687 113.92 111.596 113.576 111.596 113.196ZM117.07 115.113V110.067H117.918V110.698C118.096 110.462 118.32 110.276 118.589 110.138C118.862 109.996 119.158 109.926 119.477 109.926C119.851 109.926 120.192 110.017 120.502 110.198C120.811 110.38 121.055 110.62 121.233 110.92C121.412 110.62 121.654 110.38 121.96 110.198C122.269 110.017 122.609 109.926 122.979 109.926C123.359 109.926 123.704 110.018 124.014 110.203C124.323 110.385 124.569 110.63 124.75 110.94C124.935 111.249 125.028 111.594 125.028 111.974V115.113H124.18V112.176C124.18 111.927 124.12 111.697 123.998 111.485C123.877 111.273 123.714 111.103 123.509 110.975C123.304 110.847 123.077 110.784 122.828 110.784C122.579 110.784 122.352 110.844 122.147 110.965C121.941 111.083 121.778 111.248 121.657 111.46C121.536 111.668 121.475 111.907 121.475 112.176V115.113H120.628V112.176C120.628 111.907 120.567 111.668 120.446 111.46C120.325 111.248 120.16 111.083 119.952 110.965C119.746 110.844 119.519 110.784 119.27 110.784C119.025 110.784 118.798 110.847 118.589 110.975C118.384 111.103 118.221 111.273 118.1 111.485C117.979 111.697 117.918 111.927 117.918 112.176V115.113H117.07Z" fill="#242428"/>
<rect x="33.8082" y="136.949" width="45.2485" height="25.2301" rx="12.615" fill="#F4F6FA"/>
<rect x="33.8082" y="136.949" width="45.2485" height="25.2301" rx="12.615" stroke="#E9ECF2" stroke-width="1.0092"/>
<g clip-path="url(#clip1_2058_33819)">
<path d="M46.4236 155.864C49.9029 155.864 52.7235 153.043 52.7235 149.564C52.7235 146.084 49.9029 143.264 46.4236 143.264C42.9442 143.264 40.1237 146.084 40.1237 149.564C40.1237 153.043 42.9442 155.864 46.4236 155.864Z" fill="white"/>
<path d="M46.4233 142.497C42.5219 142.497 39.3589 145.662 39.3589 149.563C39.3589 153.464 42.5219 156.627 46.4233 156.627C50.3247 156.627 53.488 153.465 53.488 149.563C53.4991 145.673 50.3547 142.51 46.4647 142.497H46.4233ZM46.5432 149.801L45.8076 152.281H49.7418C49.7944 152.28 49.8456 152.299 49.8841 152.334C49.9226 152.37 49.9453 152.42 49.9472 152.473V152.538L49.6052 153.719C49.5901 153.775 49.5565 153.824 49.5099 153.858C49.4633 153.893 49.4064 153.91 49.3487 153.908H43.3275L44.3366 150.469L43.2076 150.811L43.4643 150.025L44.5931 149.682L46.013 144.859C46.0286 144.803 46.0623 144.755 46.1088 144.721C46.1553 144.686 46.2119 144.669 46.2695 144.671H47.7919C47.8445 144.669 47.8956 144.688 47.9341 144.724C47.9726 144.76 47.9952 144.81 47.997 144.862V144.927L46.7997 148.998L47.9287 148.656L47.6897 149.477L46.5432 149.801Z" fill="#345D9D"/>
</g>
<path d="M56.1116 153.564V146.499H56.9594V152.716H60.1232V153.564H56.1116ZM65.8213 146.499V147.347H63.4699V153.564H62.6222V147.347H60.2758V146.499H65.8213ZM69.7001 153.695C69.2225 153.695 68.7734 153.601 68.3529 153.412C67.9324 153.221 67.5623 152.958 67.2427 152.625C66.9265 152.289 66.6776 151.899 66.4959 151.454C66.3176 151.01 66.2285 150.536 66.2285 150.032C66.2285 149.527 66.3176 149.053 66.4959 148.609C66.6776 148.164 66.9265 147.776 67.2427 147.443C67.5623 147.107 67.9324 146.844 68.3529 146.656C68.7734 146.464 69.2225 146.368 69.7001 146.368C70.272 146.368 70.7985 146.501 71.2795 146.767C71.7606 147.032 72.1592 147.386 72.4754 147.826L71.7236 148.23C71.4881 147.921 71.1904 147.675 70.8304 147.493C70.4739 147.308 70.0971 147.216 69.7001 147.216C69.3335 147.216 68.9903 147.29 68.6708 147.438C68.3545 147.586 68.077 147.789 67.8382 148.048C67.5993 148.307 67.4126 148.607 67.2781 148.947C67.1435 149.286 67.0762 149.648 67.0762 150.032C67.0762 150.418 67.1435 150.782 67.2781 151.121C67.416 151.461 67.6044 151.761 67.8432 152.02C68.0854 152.279 68.3646 152.482 68.6808 152.63C69.0004 152.775 69.3402 152.847 69.7001 152.847C70.1106 152.847 70.4907 152.755 70.8405 152.57C71.1938 152.381 71.4881 152.136 71.7236 151.833L72.4754 152.242C72.1592 152.682 71.7606 153.036 71.2795 153.301C70.7985 153.564 70.272 153.695 69.7001 153.695Z" fill="#676768"/>
<path d="M87.2313 153.564V146.499H88.079V152.716H91.2428V153.564H87.2313ZM92.3561 148.518H93.2038V153.564H92.3561V148.518ZM92.7901 147.695C92.6555 147.695 92.5428 147.651 92.452 147.564C92.3612 147.477 92.3157 147.367 92.3157 147.236C92.3157 147.105 92.3612 146.995 92.452 146.908C92.5428 146.821 92.6538 146.777 92.785 146.777C92.9162 146.777 93.0272 146.821 93.1181 146.908C93.2089 146.995 93.2543 147.105 93.2543 147.236C93.2543 147.367 93.2089 147.477 93.1181 147.564C93.0306 147.651 92.9213 147.695 92.7901 147.695ZM97.0297 149.365H95.8843L95.8793 153.564H95.0315L95.0366 149.365H94.1687V148.518H95.0366L95.0315 146.933H95.8793L95.8843 148.518H97.0297V149.365ZM100.026 153.695C99.5622 153.695 99.1383 153.575 98.7548 153.337C98.3747 153.098 98.0703 152.778 97.8415 152.378C97.6161 151.974 97.5034 151.528 97.5034 151.041C97.5034 150.671 97.569 150.326 97.7002 150.006C97.8314 149.683 98.0114 149.401 98.2402 149.159C98.4723 148.913 98.7414 148.721 99.0475 148.583C99.3536 148.445 99.6799 148.376 100.026 148.376C100.407 148.376 100.755 148.454 101.071 148.609C101.391 148.76 101.663 148.972 101.888 149.244C102.117 149.517 102.287 149.833 102.398 150.193C102.512 150.553 102.554 150.938 102.524 151.349H98.4067C98.447 151.634 98.5412 151.89 98.6892 152.116C98.8373 152.338 99.0257 152.514 99.2544 152.645C99.4865 152.777 99.7439 152.844 100.026 152.847C100.329 152.847 100.603 152.77 100.849 152.615C101.095 152.457 101.293 152.242 101.444 151.969L102.307 152.171C102.105 152.618 101.801 152.985 101.394 153.271C100.987 153.554 100.531 153.695 100.026 153.695ZM98.3814 150.682H101.671C101.645 150.4 101.554 150.143 101.399 149.91C101.244 149.675 101.047 149.487 100.809 149.345C100.57 149.204 100.309 149.133 100.026 149.133C99.7439 149.133 99.4848 149.202 99.2494 149.34C99.0139 149.478 98.8188 149.665 98.664 149.9C98.5126 150.132 98.4184 150.393 98.3814 150.682ZM106.822 152.232L107.579 152.64C107.35 152.96 107.059 153.216 106.706 153.407C106.356 153.599 105.976 153.695 105.565 153.695C105.101 153.695 104.677 153.575 104.294 153.337C103.914 153.098 103.609 152.778 103.38 152.378C103.155 151.974 103.042 151.528 103.042 151.041C103.042 150.671 103.108 150.326 103.239 150.006C103.37 149.683 103.55 149.401 103.779 149.159C104.011 148.913 104.28 148.721 104.586 148.583C104.892 148.445 105.219 148.376 105.565 148.376C105.976 148.376 106.356 148.472 106.706 148.664C107.059 148.856 107.35 149.113 107.579 149.436L106.822 149.845C106.66 149.646 106.468 149.493 106.246 149.386C106.024 149.278 105.797 149.224 105.565 149.224C105.252 149.224 104.968 149.308 104.712 149.476C104.46 149.641 104.26 149.862 104.112 150.137C103.964 150.413 103.89 150.714 103.89 151.041C103.89 151.367 103.964 151.668 104.112 151.944C104.263 152.216 104.465 152.435 104.717 152.6C104.973 152.765 105.256 152.847 105.565 152.847C105.814 152.847 106.048 152.79 106.267 152.676C106.485 152.561 106.67 152.413 106.822 152.232ZM110.621 153.695C110.157 153.695 109.733 153.575 109.35 153.337C108.969 153.098 108.665 152.778 108.436 152.378C108.211 151.974 108.098 151.528 108.098 151.041C108.098 150.671 108.164 150.326 108.295 150.006C108.426 149.683 108.606 149.401 108.835 149.159C109.067 148.913 109.336 148.721 109.642 148.583C109.948 148.445 110.275 148.376 110.621 148.376C111.085 148.376 111.508 148.496 111.888 148.735C112.271 148.974 112.576 149.295 112.801 149.698C113.03 150.102 113.144 150.55 113.144 151.041C113.144 151.407 113.079 151.751 112.947 152.07C112.816 152.39 112.634 152.672 112.402 152.918C112.174 153.16 111.906 153.35 111.6 153.488C111.297 153.626 110.971 153.695 110.621 153.695ZM110.621 152.847C110.937 152.847 111.222 152.765 111.474 152.6C111.73 152.432 111.93 152.211 112.074 151.939C112.222 151.663 112.296 151.364 112.296 151.041C112.296 150.711 112.221 150.408 112.069 150.132C111.921 149.857 111.721 149.636 111.469 149.471C111.217 149.307 110.934 149.224 110.621 149.224C110.305 149.224 110.021 149.308 109.768 149.476C109.516 149.641 109.316 149.862 109.168 150.137C109.02 150.413 108.946 150.714 108.946 151.041C108.946 151.377 109.022 151.683 109.173 151.959C109.324 152.232 109.528 152.449 109.783 152.61C110.039 152.768 110.318 152.847 110.621 152.847ZM113.91 148.518H114.758V153.564H113.91V148.518ZM114.344 147.695C114.209 147.695 114.097 147.651 114.006 147.564C113.915 147.477 113.87 147.367 113.87 147.236C113.87 147.105 113.915 146.995 114.006 146.908C114.097 146.821 114.208 146.777 114.339 146.777C114.47 146.777 114.581 146.821 114.672 146.908C114.763 146.995 114.808 147.105 114.808 147.236C114.808 147.367 114.763 147.477 114.672 147.564C114.585 147.651 114.475 147.695 114.344 147.695ZM120.401 150.425V153.564H119.553V150.612C119.553 150.356 119.491 150.124 119.367 149.915C119.242 149.707 119.076 149.542 118.867 149.421C118.658 149.296 118.426 149.234 118.171 149.234C117.918 149.234 117.686 149.296 117.474 149.421C117.266 149.542 117.099 149.707 116.975 149.915C116.85 150.124 116.788 150.356 116.788 150.612V153.564H115.94V148.518H116.788V149.148C116.966 148.913 117.192 148.726 117.464 148.588C117.737 148.447 118.033 148.376 118.352 148.376C118.729 148.376 119.072 148.469 119.382 148.654C119.695 148.836 119.942 149.081 120.123 149.391C120.308 149.7 120.401 150.045 120.401 150.425Z" fill="#242428"/>
<rect x="30.276" y="52.4783" width="300.742" height="38.3497" rx="19.1748" fill="#E5EDFF"/>
<rect x="35.8266" y="59.0383" width="46.2485" height="25.2301" rx="12.615" fill="#F4F6FA"/>
<rect x="35.8266" y="59.0383" width="46.2485" height="25.2301" rx="12.615" stroke="#E9ECF2" stroke-width="1.0092"/>
<g clip-path="url(#clip2_2058_33819)">
<path d="M55.2932 73.3623C54.3497 77.1469 50.5166 79.4501 46.7316 78.5063C42.9481 77.5628 40.6449 73.7295 41.5889 69.9452C42.532 66.1602 46.3651 63.8567 50.149 64.8003C53.9338 65.7438 56.2368 69.5776 55.2932 73.3623Z" fill="#F7931A"/>
<path d="M51.5557 70.6472C51.6963 69.7072 50.9806 69.2019 50.002 68.8648L50.3194 67.5914L49.5443 67.3983L49.2353 68.6381C49.0315 68.5873 48.8222 68.5394 48.6143 68.4919L48.9255 67.2439L48.1509 67.0508L47.8332 68.3237C47.6646 68.2853 47.499 68.2473 47.3383 68.2074L47.3391 68.2034L46.2702 67.9365L46.064 68.7643C46.064 68.7643 46.6391 68.8961 46.627 68.9043C46.9409 68.9827 46.9976 69.1904 46.9881 69.3551L46.6265 70.8057C46.6482 70.8113 46.6762 70.8192 46.7071 70.8316C46.6813 70.8252 46.6537 70.8181 46.6252 70.8113L46.1183 72.8434C46.0799 72.9388 45.9826 73.0818 45.7631 73.0275C45.7708 73.0388 45.1997 72.8869 45.1997 72.8869L44.8149 73.7741L45.8236 74.0256C46.0113 74.0726 46.1952 74.1218 46.3762 74.1682L46.0554 75.4561L46.8296 75.6493L47.1473 74.375C47.3588 74.4324 47.5641 74.4854 47.765 74.5353L47.4484 75.8036L48.2235 75.9968L48.5443 74.7113C49.866 74.9614 50.8599 74.8605 51.2782 73.6651C51.6153 72.7025 51.2614 72.1473 50.566 71.7853C51.0725 71.6685 51.4539 71.3354 51.5557 70.6472ZM49.7848 73.1306C49.5452 74.0931 47.9246 73.5728 47.3992 73.4423L47.8248 71.736C48.3502 71.8672 50.0351 72.1268 49.7848 73.1306ZM50.0245 70.6333C49.806 71.5089 48.4571 71.064 48.0195 70.955L48.4054 69.4074C48.843 69.5165 50.2521 69.72 50.0245 70.6333Z" fill="white"/>
</g>
<path d="M58.1299 75.6533V68.5889H60.5672C60.917 68.5889 61.2349 68.6612 61.5209 68.8059C61.8102 68.9472 62.0389 69.1541 62.2071 69.4265C62.3753 69.699 62.4594 70.0253 62.4594 70.4055C62.4594 70.6107 62.4241 70.8091 62.3534 71.0009C62.2862 71.1893 62.192 71.3524 62.0709 71.4904C61.9531 71.6249 61.8186 71.7157 61.6672 71.7628C61.8791 71.8167 62.0591 71.9125 62.2071 72.0505C62.3551 72.185 62.4746 72.3431 62.5654 72.5248C62.6596 72.7064 62.7269 72.8965 62.7672 73.095C62.8076 73.2935 62.8278 73.4852 62.8278 73.6702C62.8278 74.0605 62.7386 74.4053 62.5603 74.7047C62.3854 75.0007 62.1499 75.2328 61.8539 75.401C61.5579 75.5692 61.2316 75.6533 60.875 75.6533H58.1299ZM58.9777 74.9065H60.7993C61.0314 74.9065 61.2416 74.8476 61.43 74.7299C61.6218 74.6088 61.7748 74.444 61.8892 74.2354C62.0036 74.0268 62.0608 73.7913 62.0608 73.5289C62.0608 73.2968 62.0036 73.0782 61.8892 72.873C61.7748 72.6644 61.6218 72.4962 61.43 72.3684C61.2416 72.2405 61.0314 72.1766 60.7993 72.1766H58.9777V74.9065ZM58.9777 71.4449H60.4864C60.7959 71.4449 61.06 71.3541 61.2786 71.1725C61.5007 70.9874 61.6117 70.7301 61.6117 70.4004C61.6117 70.0438 61.5007 69.7781 61.2786 69.6032C61.06 69.4249 60.7959 69.3357 60.4864 69.3357H58.9777V71.4449ZM68.7759 68.5889V69.4366H66.4245V75.6533H65.5767V69.4366H63.2303V68.5889H68.7759ZM72.6547 75.7845C72.177 75.7845 71.7279 75.6903 71.3074 75.5019C70.8869 75.3102 70.5169 75.0478 70.1973 74.7148C69.8811 74.3784 69.6322 73.9881 69.4505 73.5441C69.2722 73.1 69.1831 72.6257 69.1831 72.1211C69.1831 71.6165 69.2722 71.1422 69.4505 70.6981C69.6322 70.2541 69.8811 69.8655 70.1973 69.5325C70.5169 69.1961 70.8869 68.9337 71.3074 68.7453C71.7279 68.5536 72.177 68.4577 72.6547 68.4577C73.2266 68.4577 73.7531 68.5906 74.2341 68.8563C74.7152 69.1221 75.1138 69.4753 75.43 69.916L74.6782 70.3197C74.4427 70.0102 74.145 69.7646 73.785 69.583C73.4284 69.3979 73.0517 69.3054 72.6547 69.3054C72.288 69.3054 71.9449 69.3794 71.6253 69.5275C71.3091 69.6755 71.0316 69.879 70.7927 70.138C70.5539 70.3971 70.3672 70.6965 70.2326 71.0362C70.0981 71.376 70.0308 71.7376 70.0308 72.1211C70.0308 72.508 70.0981 72.8713 70.2326 73.2111C70.3706 73.5508 70.5589 73.8502 70.7978 74.1092C71.04 74.3683 71.3192 74.5718 71.6354 74.7198C71.955 74.8645 72.2948 74.9368 72.6547 74.9368C73.0651 74.9368 73.4453 74.8443 73.7951 74.6593C74.1483 74.4709 74.4427 74.2253 74.6782 73.9225L75.43 74.3313C75.1138 74.772 74.7152 75.1252 74.2341 75.3909C73.7531 75.6533 73.2266 75.7845 72.6547 75.7845Z" fill="#242428"/>
<path d="M89.2404 75.6533V68.5889H91.6776C92.0275 68.5889 92.3454 68.6612 92.6313 68.8059C92.9206 68.9472 93.1494 69.1541 93.3176 69.4265C93.4858 69.699 93.5699 70.0253 93.5699 70.4055C93.5699 70.6107 93.5346 70.8091 93.4639 71.0009C93.3966 71.1893 93.3024 71.3524 93.1813 71.4904C93.0636 71.6249 92.929 71.7157 92.7777 71.7628C92.9896 71.8167 93.1696 71.9125 93.3176 72.0505C93.4656 72.185 93.585 72.3431 93.6759 72.5248C93.77 72.7064 93.8373 72.8965 93.8777 73.095C93.9181 73.2935 93.9382 73.4852 93.9382 73.6702C93.9382 74.0605 93.8491 74.4053 93.6708 74.7047C93.4959 75.0007 93.2604 75.2328 92.9644 75.401C92.6683 75.5692 92.342 75.6533 91.9854 75.6533H89.2404ZM90.0881 74.9065H91.9097C92.1419 74.9065 92.3521 74.8476 92.5405 74.7299C92.7322 74.6088 92.8853 74.444 92.9997 74.2354C93.1141 74.0268 93.1713 73.7913 93.1713 73.5289C93.1713 73.2968 93.1141 73.0782 92.9997 72.873C92.8853 72.6644 92.7322 72.4962 92.5405 72.3684C92.3521 72.2405 92.1419 72.1766 91.9097 72.1766H90.0881V74.9065ZM90.0881 71.4449H91.5969C91.9064 71.4449 92.1705 71.3541 92.3891 71.1725C92.6111 70.9874 92.7222 70.7301 92.7222 70.4004C92.7222 70.0438 92.6111 69.7781 92.3891 69.6032C92.1705 69.4249 91.9064 69.3357 91.5969 69.3357H90.0881V71.4449ZM94.9467 70.6073H95.7945V75.6533H94.9467V70.6073ZM95.3807 69.7848C95.2461 69.7848 95.1334 69.7411 95.0426 69.6536C94.9518 69.5661 94.9064 69.4568 94.9064 69.3256C94.9064 69.1944 94.9518 69.0851 95.0426 68.9976C95.1334 68.9102 95.2445 68.8664 95.3757 68.8664C95.5068 68.8664 95.6179 68.9102 95.7087 68.9976C95.7995 69.0851 95.8449 69.1944 95.8449 69.3256C95.8449 69.4568 95.7995 69.5661 95.7087 69.6536C95.6212 69.7411 95.5119 69.7848 95.3807 69.7848ZM99.6204 71.455H98.4749L98.4699 75.6533H97.6222L97.6272 71.455H96.7593V70.6073H97.6272L97.6222 69.0229H98.4699L98.4749 70.6073H99.6204V71.455ZM103.874 74.3212L104.63 74.7299C104.402 75.0495 104.111 75.3051 103.757 75.4969C103.408 75.6886 103.027 75.7845 102.617 75.7845C102.153 75.7845 101.729 75.6651 101.345 75.4262C100.965 75.1874 100.661 74.8678 100.432 74.4675C100.207 74.0638 100.094 73.6181 100.094 73.1303C100.094 72.7603 100.16 72.4155 100.291 72.0959C100.422 71.7729 100.602 71.4904 100.831 71.2482C101.063 71.0026 101.332 70.8108 101.638 70.6729C101.944 70.535 102.271 70.466 102.617 70.466C103.027 70.466 103.408 70.5619 103.757 70.7536C104.111 70.9454 104.402 71.2027 104.63 71.5257L103.874 71.9344C103.712 71.7359 103.52 71.5829 103.298 71.4752C103.076 71.3676 102.849 71.3137 102.617 71.3137C102.304 71.3137 102.02 71.3979 101.764 71.5661C101.512 71.7309 101.312 71.9512 101.164 72.2271C101.016 72.5029 100.942 72.804 100.942 73.1303C100.942 73.4566 101.016 73.7577 101.164 74.0336C101.315 74.306 101.517 74.5247 101.769 74.6895C102.025 74.8544 102.308 74.9368 102.617 74.9368C102.866 74.9368 103.1 74.8796 103.318 74.7652C103.537 74.6508 103.722 74.5028 103.874 74.3212ZM107.673 75.7845C107.209 75.7845 106.785 75.6651 106.401 75.4262C106.021 75.1874 105.717 74.8678 105.488 74.4675C105.263 74.0638 105.15 73.6181 105.15 73.1303C105.15 72.7603 105.216 72.4155 105.347 72.0959C105.478 71.7729 105.658 71.4904 105.887 71.2482C106.119 71.0026 106.388 70.8108 106.694 70.6729C107 70.535 107.326 70.466 107.673 70.466C108.137 70.466 108.559 70.5854 108.939 70.8243C109.323 71.0631 109.627 71.3844 109.853 71.7881C110.082 72.1918 110.196 72.6392 110.196 73.1303C110.196 73.497 110.13 73.8401 109.999 74.1597C109.868 74.4793 109.686 74.7619 109.454 75.0074C109.225 75.2496 108.958 75.4397 108.652 75.5776C108.349 75.7156 108.023 75.7845 107.673 75.7845ZM107.673 74.9368C107.989 74.9368 108.273 74.8544 108.526 74.6895C108.781 74.5213 108.982 74.301 109.126 74.0285C109.274 73.7527 109.348 73.4533 109.348 73.1303C109.348 72.8006 109.273 72.4979 109.121 72.222C108.973 71.9462 108.773 71.7258 108.521 71.561C108.268 71.3962 107.986 71.3137 107.673 71.3137C107.357 71.3137 107.072 71.3979 106.82 71.5661C106.568 71.7309 106.368 71.9512 106.22 72.2271C106.072 72.5029 105.998 72.804 105.998 73.1303C105.998 73.4667 106.073 73.7728 106.225 74.0487C106.376 74.3212 106.58 74.5382 106.835 74.6996C107.091 74.8577 107.37 74.9368 107.673 74.9368ZM110.962 70.6073H111.81V75.6533H110.962V70.6073ZM111.396 69.7848C111.261 69.7848 111.149 69.7411 111.058 69.6536C110.967 69.5661 110.922 69.4568 110.922 69.3256C110.922 69.1944 110.967 69.0851 111.058 68.9976C111.149 68.9102 111.26 68.8664 111.391 68.8664C111.522 68.8664 111.633 68.9102 111.724 68.9976C111.815 69.0851 111.86 69.1944 111.86 69.3256C111.86 69.4568 111.815 69.5661 111.724 69.6536C111.636 69.7411 111.527 69.7848 111.396 69.7848ZM117.453 72.5147V75.6533H116.605V72.7014C116.605 72.4457 116.543 72.2136 116.418 72.0051C116.294 71.7965 116.127 71.6316 115.919 71.5105C115.71 71.3861 115.478 71.3238 115.222 71.3238C114.97 71.3238 114.738 71.3861 114.526 71.5105C114.318 71.6316 114.151 71.7965 114.027 72.0051C113.902 72.2136 113.84 72.4457 113.84 72.7014V75.6533H112.992V70.6073H113.84V71.2381C114.018 71.0026 114.244 70.8159 114.516 70.678C114.789 70.5367 115.085 70.466 115.404 70.466C115.781 70.466 116.124 70.5585 116.434 70.7436C116.746 70.9252 116.994 71.1708 117.175 71.4803C117.36 71.7898 117.453 72.1346 117.453 72.5147Z" fill="#242428"/>
<path d="M305.788 71.9224L306.898 70.8459L309.674 73.5371L315.779 67.6165L316.89 68.6929L309.674 75.6901L305.788 71.9224Z" fill="#242428"/>
</g>
<defs>
<filter id="filter0_d_2058_33819" x="-2.09808e-05" y="-7.67708e-05" width="361.294" height="192.758" filterUnits="userSpaceOnUse" color-interpolation-filters="sRGB">
<feFlood flood-opacity="0" result="BackgroundImageFix"/>
<feColorMatrix in="SourceAlpha" type="matrix" values="0 0 0 0 0 0 0 0 0 0 0 0 0 0 0 0 0 0 127 0" result="hardAlpha"/>
<feOffset dy="4.03681"/>
<feGaussianBlur stdDeviation="8.07362"/>
<feComposite in2="hardAlpha" operator="out"/>
<feColorMatrix type="matrix" values="0 0 0 0 0.185888 0 0 0 0 0.185888 0 0 0 0 0.396154 0 0 0 0.15 0"/>
<feBlend mode="normal" in2="BackgroundImageFix" result="effect1_dropShadow_2058_33819"/>
<feBlend mode="normal" in="SourceGraphic" in2="effect1_dropShadow_2058_33819" result="shape"/>
</filter>
<clipPath id="clip0_2058_33819">
<rect width="8.95667" height="14.3307" fill="white" transform="translate(39.3589 103.948)"/>
</clipPath>
<clipPath id="clip1_2058_33819">
<rect width="14.1288" height="14.1288" fill="white" transform="translate(39.3589 142.499)"/>
</clipPath>
<clipPath id="clip2_2058_33819">
<rect width="14.1288" height="14.1288" fill="white" transform="translate(41.3773 64.5889)"/>
</clipPath>
</defs>
</svg>
